<svg width="450" height="450" viewBox="0 0 450 450" fill="none" xmlns="http://www.w3.org/2000/svg">
<path d="M368.59 342H43.35V276.26H368.59V342Z" fill="#F7BB43"/>
<path d="M368.59 342H406.65V276.26H368.59V342Z" fill="#322929"/>
<path d="M406.65 220.9H112.55V276.26H406.65V220.9Z" fill="#FFE4AD"/>
<path d="M330.53 220.9H299.39V276.26H330.53V220.9Z" fill="#322929"/>
<path d="M74.49 305.67C74.49 293.257 84.567 283.18 96.98 283.18C109.393 283.18 119.47 293.257 119.47 305.67C119.47 318.083 109.393 328.16 96.98 328.16C84.567 328.16 74.49 318.083 74.49 305.67Z" fill="#322929"/>
<path d="M406.65 169H160.99V220.9H406.65V169Z" fill="#DD9505"/>
<path d="M212.89 169H205.97V220.9H212.89V169Z" fill="#322929"/>
<path d="M195.59 169H188.67V220.9H195.59V169Z" fill="#322929"/>
<path d="M354.75 194.95C354.75 185.879 362.114 178.515 371.185 178.515C380.256 178.515 387.62 185.879 387.62 194.95C387.62 204.021 380.256 211.385 371.185 211.385C362.114 211.385 354.75 204.021 354.75 194.95Z" fill="#322929"/>
</svg>
