<svg width="745" height="745" viewBox="0 0 745 745" fill="none" xmlns="http://www.w3.org/2000/svg">
<path fill-rule="evenodd" clip-rule="evenodd" d="M663.277 557.753L333.033 718.28L317.512 702.556L627.617 529.521L663.283 557.755L663.277 557.753Z" fill="#322929"/>
<path fill-rule="evenodd" clip-rule="evenodd" d="M38.9593 394.248L333.299 713.553L679.308 478.902L335.158 251.031L38.3162 336.566L38.9498 394.234L38.9593 394.248Z" fill="#E5D8C0"/>
<path fill-rule="evenodd" clip-rule="evenodd" d="M38.5726 335.968C38.3096 348.531 38.9379 362.787 38.3854 374.507C37.8384 386.248 34.3261 392.263 38.8002 397.79C129.125 500.227 257.582 646.775 332.199 716.672C329.47 704.658 330.567 688.855 331.679 667.165C332.792 645.474 335.571 639.303 338.302 628.141C455.978 576.173 570.147 520.809 678.709 474.428C576.062 395.067 424.178 287.874 342.233 231.854C207.25 278.612 141.531 297.639 38.5761 335.958L38.5726 335.968Z" fill="#322929" stroke="black" stroke-width="1.08923"/>
<path fill-rule="evenodd" clip-rule="evenodd" d="M39.0361 334.816C37.5927 352.393 42.2482 378.517 36.47 394.842C64.1619 418.157 299.628 681.351 328.725 714.691C325.24 681.116 328.238 655.272 337.351 627.768L39.0442 334.815L39.0361 334.816Z" fill="url(#paint0_linear)"/>
<path fill-rule="evenodd" clip-rule="evenodd" d="M40.1461 335.37L338.577 626.997L672.065 486.367L349.658 231.014L40.1355 335.364L40.1461 335.37Z" fill="url(#paint1_linear)"/>
<path fill-rule="evenodd" clip-rule="evenodd" d="M339.289 628.931L676.922 480.075L661.102 550.187L333.301 713.464C336.939 683.095 339.33 661.174 339.281 628.928L339.289 628.931Z" fill="url(#paint2_linear)"/>
<path fill-rule="evenodd" clip-rule="evenodd" d="M679.891 470.341C571.961 519.468 365.943 646.918 350.317 619.84L333.913 578.401L646.491 442.466L679.898 470.34L679.891 470.341Z" fill="#BAA8BF" stroke="black" stroke-width="0.978088"/>
<path fill-rule="evenodd" clip-rule="evenodd" d="M17.2758 316.629L352.001 620.151C373.764 639.705 570.732 518.89 680.109 468.262L704.447 395.594L324.548 211.524L25.814 268.63L17.279 316.636L17.2758 316.629Z" fill="#E5D8C0"/>
<path fill-rule="evenodd" clip-rule="evenodd" d="M25.4043 269.037C24.6591 282.038 18.1966 312.054 16.9269 316.022C108.469 401.45 276.04 548.499 350.381 620.747C350.031 614.821 354.334 606.604 359.639 588.084C363.718 573.844 367.837 559.248 369.538 546.848C439.018 524.845 594.984 438.43 701.861 395.764C596.332 327.207 413.017 247.748 329.047 199.501C204.533 227.758 126.975 244.844 25.4123 269.039L25.4043 269.037Z" fill="#BAA8BF" stroke="black" stroke-width="1.02373"/>
<path fill-rule="evenodd" clip-rule="evenodd" d="M26.328 269.425L371.029 547.048L691.899 396.445L327.681 203.766L26.328 269.417V269.425Z" fill="url(#paint3_linear)"/>
<path fill-rule="evenodd" clip-rule="evenodd" d="M372.464 547.819C435.125 524.502 591.597 446.64 701.158 396.052C708.828 415.718 686.409 450.892 679.92 468.122C570.859 519.121 414.016 616.877 352.748 621.115C358.822 595.933 363.957 579.122 372.471 547.816L372.464 547.819Z" fill="url(#paint4_linear)"/>
<path fill-rule="evenodd" clip-rule="evenodd" d="M25.8281 269.889C24.0846 285.774 22.1799 294.828 17.6206 315.908C46.1595 336.087 320.288 590.29 350.585 619.304C349.635 609.962 361.393 585.672 368.256 547.162L25.8263 269.894L25.8281 269.889Z" fill="url(#paint5_linear)"/>
<path fill-rule="evenodd" clip-rule="evenodd" d="M686.983 415.627C446.746 490.616 392.987 540.576 340.488 522.953L324.342 507.856L660.078 396.784L686.983 415.632V415.627Z" fill="#7AC4DD" stroke="#070061" stroke-width="1.30404"/>
<path fill-rule="evenodd" clip-rule="evenodd" d="M25.1301 257.35L340.708 519.136L707.078 295.993L338.143 115.024L29.8029 185.514L25.1268 257.342L25.1301 257.35Z" fill="#E5D8C0"/>
<path fill-rule="evenodd" clip-rule="evenodd" d="M26.5124 183.15C28.9042 199.253 26.8776 214.393 26.3252 226.113C25.7782 237.855 20.4959 255.375 24.9702 260.901C106.445 329.71 250.83 448.824 336.06 517.84C338.64 507.597 345.047 490.91 349.699 471.874C354.856 450.776 360.67 424.543 358.092 406.302C454.527 370.263 584.636 332.598 703.814 293.297C580.811 228.98 428.043 164.262 332.826 113.556C189.001 144.385 129.461 147.483 26.507 183.148L26.5124 183.15Z" fill="#7AC4DD" stroke="#070061" stroke-width="1.08887"/>
<path fill-rule="evenodd" clip-rule="evenodd" d="M26.9047 184.258C31.093 204.964 26.0494 247.669 23.0871 260.554C50.7795 283.869 296.381 484.491 335.209 516.059C345.883 481.599 351.814 454.833 356.502 409.63L26.9058 184.259L26.9047 184.258Z" fill="url(#paint6_linear)"/>
<path fill-rule="evenodd" clip-rule="evenodd" d="M25.4311 182.552L356.614 405.152L698.066 292.841L333.185 116.252C219.983 134.811 121.821 155.14 25.4311 182.549V182.552Z" fill="url(#paint7_linear)"/>
<path fill-rule="evenodd" clip-rule="evenodd" d="M359.973 407.14L706.456 293.678C708.852 337.402 697.09 377.586 684.442 411.574C568.687 447.418 379.481 542.554 337.176 519.104C347.893 486.08 362.674 439.382 359.971 407.131L359.973 407.14Z" fill="url(#paint8_linear)"/>
<path fill-rule="evenodd" clip-rule="evenodd" d="M687.194 310.314C687.194 310.314 327.909 384.65 324.366 385.534C320.824 386.419 292.509 394.384 281.004 381.994C281.004 381.994 76.5845 175.804 40.2996 143.942C60.6535 127.129 356.225 90.8447 356.225 90.8447L687.19 310.315L687.194 310.314Z" fill="#662F26" stroke="#301511" stroke-width="1.35837"/>
<path fill-rule="evenodd" clip-rule="evenodd" d="M275.693 374.027L292.506 386.417C330.652 386.659 539.839 333.027 688.076 308.542C706.07 274.914 716.984 239.515 726.129 194.384L363.302 29.7813L59.7645 73.1439L42.0655 143.939L275.695 374.026L275.693 374.027Z" fill="#C4BFAA"/>
<path fill-rule="evenodd" clip-rule="evenodd" d="M287.201 387.307C285.726 381.997 281.849 376.314 283.661 371.378C288.51 358.172 294.428 343.443 298.706 328.015C302.688 313.65 305.635 297.292 310.209 283.768C312.419 277.234 318.174 271.969 323.483 266.955C387.2 240.701 584.541 203.828 727.019 185.54C607.253 132.443 488.379 82.8862 367.734 26.2517C270.979 35.6911 175.323 45.2961 88.0933 62.5344C77.7545 64.5777 62.8308 67.0586 54.4654 73.1538C48.9663 95.6713 46.2059 106.192 41.1913 127.136L39.4214 145.719L287.211 387.314L287.201 387.307Z" fill="#662F26" stroke="#301511" stroke-width="1.35837"/>
<path fill-rule="evenodd" clip-rule="evenodd" d="M295.319 381.558C314.822 383.018 332.134 379.785 350.072 376.552L687.981 307.719L704.876 271.426L720.521 221.992L725.526 195.084L476.477 228.875L354.451 258.285C340.789 262.979 331.506 267.359 320.347 273.617C315.967 277.371 313.464 281.438 310.648 288.322C308.354 302.505 306.372 317.315 301.887 331.186C297.299 345.578 292.397 360.283 287.808 373.736C287.704 378.43 291.354 380.62 295.317 381.558L295.319 381.558Z" fill="url(#paint9_linear)"/>
<path fill-rule="evenodd" clip-rule="evenodd" d="M510.203 225.356C586.161 216.506 648.398 206.772 724.804 201.463L724.362 204.117C648.551 210.312 591.328 216.949 510.206 225.356H510.203Z" fill="#B2AD98"/>
<path fill-rule="evenodd" clip-rule="evenodd" d="M722.587 208.545V210.757C662.264 216.066 612.113 221.818 553.562 229.34C610.789 220.196 662.265 213.706 722.587 208.544V208.545Z" fill="#B2AD98"/>
<path d="M360.705 255.783C360.705 255.783 328.983 266.619 321.909 272.053C314.836 277.488 314.71 278.309 311.271 285.82C307.833 293.331 306.738 311.17 303.762 322.739C300.787 334.308 293.398 354.371 291.247 362.787C289.096 371.204 285.529 374.383 288.118 378.432C290.708 382.481 297.046 381.612 303.762 382.186C310.478 382.76 332.547 380.309 332.547 380.309" stroke="#B2AD98" stroke-width="1.0867"/>
<path fill-rule="evenodd" clip-rule="evenodd" d="M56.2273 74.0328C128.498 128.309 207.713 187.517 288.966 248.372C404.004 205.895 587.754 187.915 677.461 172.267C610.736 140.326 381.009 37.9729 357.993 28.6816C264.63 37.9089 121.125 50.7318 56.2273 74.035V74.0328Z" fill="#D89100"/>
<path fill-rule="evenodd" clip-rule="evenodd" d="M42.0687 142.169L281.893 380.221L285.432 363.408L311.096 281.108L53.5806 74.0263L42.0768 142.167L42.0687 142.169Z" fill="url(#paint10_linear)"/>
<path fill-rule="evenodd" clip-rule="evenodd" d="M42.0687 142.169L281.893 380.221L285.432 363.408L311.096 281.108L322.6 266.949L53.5762 74.0274L42.0724 142.168L42.0687 142.169Z" fill="url(#paint11_linear)"/>
<path fill-rule="evenodd" clip-rule="evenodd" d="M54.7125 73.0657C93.7174 51.7902 259.751 39.9007 367.584 26.7603L726.141 185.071C580.762 205.72 433.504 229.499 323.779 265.793L312.516 277.683C221.782 208.433 139.807 141.063 54.707 73.057L54.7125 73.0657Z" fill="url(#paint12_linear)"/>
<defs>
<linearGradient id="paint0_linear" x1="104.152" y1="493.29" x2="191.051" y2="404.696" gradientUnits="userSpaceOnUse">
<stop stop-opacity="0"/>
<stop offset="0.51634" stop-color="#888888" stop-opacity="0.55319"/>
<stop offset="1" stop-color="#ADADAD" stop-opacity="0"/>
</linearGradient>
<linearGradient id="paint1_linear" x1="-315.202" y1="455.806" x2="155.044" y2="-4.36163" gradientUnits="userSpaceOnUse">
<stop stop-opacity="0"/>
<stop offset="0.52727" stop-color="#888888" stop-opacity="0.44706"/>
<stop offset="1" stop-color="#ADADAD" stop-opacity="0"/>
</linearGradient>
<linearGradient id="paint2_linear" x1="468.038" y1="511.391" x2="469.043" y2="513.335" gradientUnits="userSpaceOnUse">
<stop stop-color="#DCC499"/>
<stop offset="1" stop-color="#E5D8C0"/>
</linearGradient>
<linearGradient id="paint3_linear" x1="-288.978" y1="405.847" x2="107.333" y2="-57.1225" gradientUnits="userSpaceOnUse">
<stop stop-opacity="0"/>
<stop offset="0.52727" stop-color="#888888" stop-opacity="0.44706"/>
<stop offset="1" stop-color="#ADADAD" stop-opacity="0"/>
</linearGradient>
<linearGradient id="paint4_linear" x1="507.549" y1="451.465" x2="508.417" y2="453.267" gradientUnits="userSpaceOnUse">
<stop stop-color="#DCC499"/>
<stop offset="1" stop-color="#E5D8C0"/>
</linearGradient>
<linearGradient id="paint5_linear" x1="99.2007" y1="406.722" x2="172.027" y2="318.15" gradientUnits="userSpaceOnUse">
<stop stop-opacity="0"/>
<stop offset="0.51634" stop-color="#888888" stop-opacity="0.55319"/>
<stop offset="1" stop-color="#ADADAD" stop-opacity="0"/>
</linearGradient>
<linearGradient id="paint6_linear" x1="83.2486" y1="348.035" x2="183.167" y2="209.624" gradientUnits="userSpaceOnUse">
<stop stop-color="#000636" stop-opacity="0"/>
<stop offset="0.4723" stop-color="#1F3768" stop-opacity="0.31765"/>
<stop offset="1" stop-color="#2C56A8" stop-opacity="0"/>
</linearGradient>
<linearGradient id="paint7_linear" x1="-297.177" y1="233.96" x2="173.07" y2="-226.203" gradientUnits="userSpaceOnUse">
<stop stop-color="#000636" stop-opacity="0"/>
<stop offset="0.4723" stop-color="#1F3768" stop-opacity="0.31765"/>
<stop offset="1" stop-color="#2C56A8" stop-opacity="0"/>
</linearGradient>
<linearGradient id="paint8_linear" x1="497.583" y1="324.94" x2="498.645" y2="327.75" gradientUnits="userSpaceOnUse">
<stop stop-color="#DCC499"/>
<stop offset="1" stop-color="#E5D8C0"/>
</linearGradient>
<linearGradient id="paint9_linear" x1="566.983" y1="274.996" x2="567.374" y2="277.887" gradientUnits="userSpaceOnUse">
<stop stop-color="#DCC499"/>
<stop offset="1" stop-color="#E5D8C0"/>
</linearGradient>
<linearGradient id="paint10_linear" x1="218.533" y1="193.961" x2="205.579" y2="210.859" gradientUnits="userSpaceOnUse">
<stop stop-opacity="0.27434"/>
<stop offset="1" stop-opacity="0"/>
</linearGradient>
<linearGradient id="paint11_linear" x1="164.089" y1="264.042" x2="185.562" y2="239.646" gradientUnits="userSpaceOnUse">
<stop stop-opacity="0.27434"/>
<stop offset="1" stop-opacity="0"/>
</linearGradient>
<linearGradient id="paint12_linear" x1="175.945" y1="167.261" x2="405.793" y2="-8.8389" gradientUnits="userSpaceOnUse">
<stop stop-opacity="0.27434"/>
<stop offset="1" stop-opacity="0"/>
</linearGradient>
</defs>
</svg>
