<svg width="503" height="503" viewBox="0 0 503 503" fill="none" xmlns="http://www.w3.org/2000/svg">
<circle cx="251.5" cy="251.5" r="241.5" fill="#D8D8D8" stroke="#322929" stroke-width="20"/>
<path fill-rule="evenodd" clip-rule="evenodd" d="M203.374 311.51C171.042 320.338 141.227 337.915 117.18 362.846C98.7531 381.95 84.4913 404.564 75 429.173C116.897 471.266 173.29 498.512 235.895 502.5H251.883H267.872C330.477 498.512 386.87 471.266 428.767 429.172C419.275 404.564 405.014 381.95 386.587 362.846C362.408 337.778 332.398 320.145 299.862 311.366C285.79 320.013 269.227 325 251.5 325C233.871 325 217.395 320.069 203.374 311.51Z" fill="#322929"/>
<circle cx="251.5" cy="202.5" r="92.5" fill="#322929"/>
</svg>
